<mxfile host="65bd71144e">
    <diagram id="KhUCfNvhIDTQsZcqQasR" name="Page-1">
        <mxGraphModel dx="749" dy="537" grid="1" gridSize="10" guides="1" tooltips="1" connect="1" arrows="1" fold="1" page="1" pageScale="1" pageWidth="1169" pageHeight="827" background="none" math="0" shadow="0">
            <root>
                <mxCell id="0"/>
                <mxCell id="1" parent="0"/>
                <mxCell id="163" style="edgeStyle=none;html=1;exitX=0;exitY=0;exitDx=80;exitDy=10;exitPerimeter=0;entryX=-0.012;entryY=0.367;entryDx=0;entryDy=0;entryPerimeter=0;strokeWidth=2;" parent="1" source="2" target="162" edge="1">
                    <mxGeometry relative="1" as="geometry"/>
                </mxCell>
                <mxCell id="2" value="playerMove" style="externalPins=0;recursiveResize=0;shadow=0;dashed=0;align=center;html=1;strokeWidth=1;shape=mxgraph.rtl.abstract.entity;container=1;collapsible=0;kind=input;drawPins=0;left=0;right=1;bottom=0;top=0;" parent="1" vertex="1">
                    <mxGeometry x="212" y="369" width="80" height="20" as="geometry"/>
                </mxCell>
                <mxCell id="3" value="tiles" style="externalPins=0;recursiveResize=0;shadow=0;dashed=0;align=center;html=1;strokeWidth=1;shape=mxgraph.rtl.abstract.entity;container=1;collapsible=0;kind=input;drawPins=0;left=0;right=1;bottom=0;top=0;" parent="1" vertex="1">
                    <mxGeometry x="1109.33" y="441.5" width="50" height="20" as="geometry"/>
                </mxCell>
                <mxCell id="176" style="edgeStyle=none;html=1;exitX=0;exitY=0;exitDx=80;exitDy=40;exitPerimeter=0;entryX=0;entryY=0.364;entryDx=0;entryDy=0;entryPerimeter=0;strokeWidth=2;" edge="1" parent="1" source="4" target="175">
                    <mxGeometry relative="1" as="geometry"/>
                </mxCell>
                <mxCell id="181" value="&lt;font style=&quot;font-size: 8px;&quot;&gt;bomb1Temp&lt;/font&gt;" style="edgeLabel;html=1;align=center;verticalAlign=middle;resizable=0;points=[];" vertex="1" connectable="0" parent="176">
                    <mxGeometry x="0.0933" y="1" relative="1" as="geometry">
                        <mxPoint x="-2" y="-8" as="offset"/>
                    </mxGeometry>
                </mxCell>
                <mxCell id="4" value="" style="externalPins=0;recursiveResize=0;shadow=0;dashed=0;align=center;html=1;strokeWidth=1;shape=mxgraph.rtl.abstract.entity;container=1;collapsible=0;kind=sequential;drawPins=0;left=3;right=2;bottom=0;top=0;" parent="1" vertex="1">
                    <mxGeometry x="675.0000000000001" y="409" width="80" height="129" as="geometry"/>
                </mxCell>
                <mxCell id="53" value="" style="triangle;whiteSpace=wrap;html=1;strokeWidth=1;fontSize=10;fillColor=none;" parent="4" vertex="1">
                    <mxGeometry y="110" width="10" height="19" as="geometry"/>
                </mxCell>
                <mxCell id="160" style="edgeStyle=none;rounded=0;html=1;exitX=0.996;exitY=0.354;exitDx=0;exitDy=0;exitPerimeter=0;strokeWidth=2;fontSize=8;" parent="1" source="5" target="3" edge="1">
                    <mxGeometry relative="1" as="geometry"/>
                </mxCell>
                <mxCell id="5" value="" style="externalPins=0;recursiveResize=0;shadow=0;dashed=0;align=center;html=1;strokeWidth=1;shape=mxgraph.rtl.abstract.entity;container=1;collapsible=0;kind=sequential;drawPins=0;left=3;right=2;bottom=0;top=0;" parent="1" vertex="1">
                    <mxGeometry x="990" y="423" width="55" height="80" as="geometry"/>
                </mxCell>
                <mxCell id="169" style="edgeStyle=none;rounded=0;html=1;exitX=0;exitY=0;exitDx=80;exitDy=10;exitPerimeter=0;entryX=0.001;entryY=0.627;entryDx=0;entryDy=0;entryPerimeter=0;strokeWidth=1;" parent="1" source="14" target="162" edge="1">
                    <mxGeometry relative="1" as="geometry">
                        <Array as="points">
                            <mxPoint x="320" y="429"/>
                            <mxPoint x="320" y="400"/>
                        </Array>
                    </mxGeometry>
                </mxCell>
                <mxCell id="14" value="reset" style="externalPins=0;recursiveResize=0;shadow=0;dashed=0;align=center;html=1;strokeWidth=1;shape=mxgraph.rtl.abstract.entity;container=1;collapsible=0;kind=input;drawPins=0;left=0;right=1;bottom=0;top=0;" parent="1" vertex="1">
                    <mxGeometry x="212" y="419" width="80" height="20" as="geometry"/>
                </mxCell>
                <mxCell id="171" style="edgeStyle=none;rounded=0;html=1;exitX=0;exitY=0;exitDx=80;exitDy=10;exitPerimeter=0;entryX=0;entryY=0.5;entryDx=0;entryDy=0;strokeWidth=1;" parent="1" source="15" target="170" edge="1">
                    <mxGeometry relative="1" as="geometry">
                        <Array as="points">
                            <mxPoint x="330" y="469"/>
                            <mxPoint x="330" y="420"/>
                        </Array>
                    </mxGeometry>
                </mxCell>
                <mxCell id="15" value="clock" style="externalPins=0;recursiveResize=0;shadow=0;dashed=0;align=center;html=1;strokeWidth=1;shape=mxgraph.rtl.abstract.entity;container=1;collapsible=0;kind=input;drawPins=0;left=0;right=1;bottom=0;top=0;" parent="1" vertex="1">
                    <mxGeometry x="212" y="459" width="80" height="20" as="geometry"/>
                </mxCell>
                <mxCell id="128" value="" style="endArrow=classic;html=1;rounded=0;strokeWidth=1;fontSize=10;" parent="1" edge="1">
                    <mxGeometry width="50" height="50" relative="1" as="geometry">
                        <mxPoint x="617" y="500.8100000000001" as="sourcePoint"/>
                        <mxPoint x="675.0000000000001" y="500.8100000000001" as="targetPoint"/>
                    </mxGeometry>
                </mxCell>
                <mxCell id="129" value="reset" style="edgeLabel;html=1;align=center;verticalAlign=middle;resizable=0;points=[];fontSize=10;" parent="128" vertex="1" connectable="0">
                    <mxGeometry x="0.1592" y="1" relative="1" as="geometry">
                        <mxPoint x="-46" y="1" as="offset"/>
                    </mxGeometry>
                </mxCell>
                <mxCell id="130" value="" style="endArrow=classic;html=1;rounded=0;strokeWidth=1;fontSize=10;" parent="1" edge="1">
                    <mxGeometry width="50" height="50" relative="1" as="geometry">
                        <mxPoint x="613" y="526.81" as="sourcePoint"/>
                        <mxPoint x="675.0000000000001" y="526.81" as="targetPoint"/>
                    </mxGeometry>
                </mxCell>
                <mxCell id="131" value="clock" style="edgeLabel;html=1;align=center;verticalAlign=middle;resizable=0;points=[];fontSize=10;" parent="130" vertex="1" connectable="0">
                    <mxGeometry x="0.2454" y="-1" relative="1" as="geometry">
                        <mxPoint x="-43" y="-2" as="offset"/>
                    </mxGeometry>
                </mxCell>
                <mxCell id="132" value="RANDOMIZER" style="text;html=1;align=center;verticalAlign=middle;resizable=0;points=[];autosize=1;strokeColor=none;fillColor=none;fontSize=10;" parent="1" vertex="1">
                    <mxGeometry x="670.0000000000001" y="389" width="90" height="30" as="geometry"/>
                </mxCell>
                <mxCell id="134" value="TILE_DRIVER" style="text;html=1;align=center;verticalAlign=middle;resizable=0;points=[];autosize=1;strokeColor=none;fillColor=none;fontSize=10;" parent="1" vertex="1">
                    <mxGeometry x="980" y="400" width="90" height="30" as="geometry"/>
                </mxCell>
                <mxCell id="154" value="&lt;font style=&quot;font-size: 8px;&quot;&gt;moveDet&lt;/font&gt;" style="edgeStyle=none;rounded=0;html=1;exitX=0;exitY=0;exitDx=70;exitDy=30;exitPerimeter=0;entryX=0;entryY=0;entryDx=0;entryDy=30;entryPerimeter=0;strokeWidth=1;" parent="1" source="137" target="4" edge="1">
                    <mxGeometry x="-0.7576" y="10" relative="1" as="geometry">
                        <Array as="points">
                            <mxPoint x="590" y="460"/>
                            <mxPoint x="590" y="440"/>
                        </Array>
                        <mxPoint as="offset"/>
                    </mxGeometry>
                </mxCell>
                <mxCell id="155" style="edgeStyle=none;rounded=0;html=1;entryX=0;entryY=0;entryDx=0;entryDy=60;entryPerimeter=0;strokeWidth=1;fontSize=8;exitX=0;exitY=0;exitDx=70;exitDy=60;exitPerimeter=0;" parent="1" source="137" target="4" edge="1">
                    <mxGeometry relative="1" as="geometry">
                        <mxPoint x="570" y="480" as="sourcePoint"/>
                        <Array as="points">
                            <mxPoint x="590" y="490"/>
                            <mxPoint x="590" y="470"/>
                        </Array>
                    </mxGeometry>
                </mxCell>
                <mxCell id="156" value="gamePlayMode" style="edgeLabel;html=1;align=center;verticalAlign=middle;resizable=0;points=[];fontSize=8;" parent="155" vertex="1" connectable="0">
                    <mxGeometry x="-0.4862" y="-2" relative="1" as="geometry">
                        <mxPoint x="-12" y="3" as="offset"/>
                    </mxGeometry>
                </mxCell>
                <mxCell id="137" value="" style="externalPins=0;recursiveResize=0;shadow=0;dashed=0;align=center;html=1;strokeWidth=1;shape=mxgraph.rtl.abstract.entity;container=1;collapsible=0;kind=sequential;drawPins=0;left=3;right=2;bottom=0;top=0;" parent="1" vertex="1">
                    <mxGeometry x="460" y="430" width="70" height="90" as="geometry"/>
                </mxCell>
                <mxCell id="138" value="" style="triangle;whiteSpace=wrap;html=1;strokeWidth=1;fontSize=10;fillColor=none;" parent="137" vertex="1">
                    <mxGeometry y="71" width="10" height="19" as="geometry"/>
                </mxCell>
                <mxCell id="139" value="" style="endArrow=classic;html=1;rounded=0;strokeWidth=1;fontSize=10;" parent="1" edge="1">
                    <mxGeometry width="50" height="50" relative="1" as="geometry">
                        <mxPoint x="402" y="490.00000000000017" as="sourcePoint"/>
                        <mxPoint x="460" y="490.00000000000017" as="targetPoint"/>
                    </mxGeometry>
                </mxCell>
                <mxCell id="140" value="reset" style="edgeLabel;html=1;align=center;verticalAlign=middle;resizable=0;points=[];fontSize=10;" parent="139" vertex="1" connectable="0">
                    <mxGeometry x="0.1592" y="1" relative="1" as="geometry">
                        <mxPoint x="-46" y="1" as="offset"/>
                    </mxGeometry>
                </mxCell>
                <mxCell id="141" value="" style="endArrow=classic;html=1;rounded=0;strokeWidth=1;fontSize=10;" parent="1" edge="1">
                    <mxGeometry width="50" height="50" relative="1" as="geometry">
                        <mxPoint x="398" y="510" as="sourcePoint"/>
                        <mxPoint x="460" y="510" as="targetPoint"/>
                    </mxGeometry>
                </mxCell>
                <mxCell id="142" value="clock" style="edgeLabel;html=1;align=center;verticalAlign=middle;resizable=0;points=[];fontSize=10;" parent="141" vertex="1" connectable="0">
                    <mxGeometry x="0.2454" y="-1" relative="1" as="geometry">
                        <mxPoint x="-43" y="-2" as="offset"/>
                    </mxGeometry>
                </mxCell>
                <mxCell id="145" value="" style="triangle;whiteSpace=wrap;html=1;strokeWidth=1;fontSize=10;fillColor=none;" parent="1" vertex="1">
                    <mxGeometry x="990" y="484" width="10" height="19" as="geometry"/>
                </mxCell>
                <mxCell id="146" value="" style="endArrow=classic;html=1;rounded=0;strokeWidth=1;fontSize=10;" parent="1" edge="1">
                    <mxGeometry width="50" height="50" relative="1" as="geometry">
                        <mxPoint x="932" y="473.0000000000002" as="sourcePoint"/>
                        <mxPoint x="990" y="473.0000000000002" as="targetPoint"/>
                    </mxGeometry>
                </mxCell>
                <mxCell id="147" value="reset" style="edgeLabel;html=1;align=center;verticalAlign=middle;resizable=0;points=[];fontSize=10;" parent="146" vertex="1" connectable="0">
                    <mxGeometry x="0.1592" y="1" relative="1" as="geometry">
                        <mxPoint x="-46" y="1" as="offset"/>
                    </mxGeometry>
                </mxCell>
                <mxCell id="148" value="" style="endArrow=classic;html=1;rounded=0;strokeWidth=1;fontSize=10;" parent="1" edge="1">
                    <mxGeometry width="50" height="50" relative="1" as="geometry">
                        <mxPoint x="928" y="493" as="sourcePoint"/>
                        <mxPoint x="990" y="493" as="targetPoint"/>
                    </mxGeometry>
                </mxCell>
                <mxCell id="149" value="clock" style="edgeLabel;html=1;align=center;verticalAlign=middle;resizable=0;points=[];fontSize=10;" parent="148" vertex="1" connectable="0">
                    <mxGeometry x="0.2454" y="-1" relative="1" as="geometry">
                        <mxPoint x="-43" y="-2" as="offset"/>
                    </mxGeometry>
                </mxCell>
                <mxCell id="153" value="MOVE_DETECTED" style="text;html=1;align=center;verticalAlign=middle;resizable=0;points=[];autosize=1;strokeColor=none;fillColor=none;" parent="1" vertex="1">
                    <mxGeometry x="448" y="407" width="130" height="30" as="geometry"/>
                </mxCell>
                <mxCell id="161" value="16" style="verticalLabelPosition=top;shadow=0;dashed=0;align=center;html=1;verticalAlign=bottom;shape=mxgraph.electrical.transmission.bus_width;pointerEvents=1;fontSize=8;strokeWidth=2;labelPosition=center;" parent="1" vertex="1">
                    <mxGeometry x="1049.33" y="446.5" width="10" height="10" as="geometry"/>
                </mxCell>
                <mxCell id="167" style="edgeStyle=none;html=1;exitX=0;exitY=0;exitDx=50;exitDy=20;exitPerimeter=0;entryX=0;entryY=0;entryDx=0;entryDy=20;entryPerimeter=0;rounded=0;strokeWidth=2;" parent="1" source="162" target="137" edge="1">
                    <mxGeometry relative="1" as="geometry">
                        <Array as="points">
                            <mxPoint x="420" y="369"/>
                            <mxPoint x="420" y="450"/>
                        </Array>
                    </mxGeometry>
                </mxCell>
                <mxCell id="174" value="&lt;font style=&quot;font-size: 8px;&quot;&gt;playerMoveSync&lt;/font&gt;" style="edgeLabel;html=1;align=center;verticalAlign=middle;resizable=0;points=[];rotation=90;" parent="167" vertex="1" connectable="0">
                    <mxGeometry relative="1" as="geometry">
                        <mxPoint x="9" as="offset"/>
                    </mxGeometry>
                </mxCell>
                <mxCell id="162" value="" style="externalPins=0;recursiveResize=0;shadow=0;dashed=0;align=center;html=1;strokeWidth=1;shape=mxgraph.rtl.abstract.entity;container=1;collapsible=0;kind=sequential;drawPins=0;left=3;right=2;bottom=0;top=0;" parent="1" vertex="1">
                    <mxGeometry x="340" y="349" width="50" height="81" as="geometry"/>
                </mxCell>
                <mxCell id="170" value="" style="triangle;whiteSpace=wrap;html=1;strokeWidth=1;fontSize=10;fillColor=none;" parent="162" vertex="1">
                    <mxGeometry y="62" width="10" height="19" as="geometry"/>
                </mxCell>
                <mxCell id="168" value="MOVE_SYNC" style="text;html=1;align=center;verticalAlign=middle;resizable=0;points=[];autosize=1;strokeColor=none;fillColor=none;" parent="1" vertex="1">
                    <mxGeometry x="328" y="326" width="100" height="30" as="geometry"/>
                </mxCell>
                <mxCell id="172" value="16" style="verticalLabelPosition=top;shadow=0;dashed=0;align=center;html=1;verticalAlign=bottom;shape=mxgraph.electrical.transmission.bus_width;pointerEvents=1;fontSize=8;strokeWidth=2;labelPosition=center;" parent="1" vertex="1">
                    <mxGeometry x="304" y="374" width="10" height="10" as="geometry"/>
                </mxCell>
                <mxCell id="173" value="16" style="verticalLabelPosition=top;shadow=0;dashed=0;align=center;html=1;verticalAlign=bottom;shape=mxgraph.electrical.transmission.bus_width;pointerEvents=1;fontSize=8;strokeWidth=2;labelPosition=center;" parent="1" vertex="1">
                    <mxGeometry x="400" y="364" width="10" height="10" as="geometry"/>
                </mxCell>
                <mxCell id="188" style="edgeStyle=none;html=1;exitX=0;exitY=0;exitDx=70;exitDy=40;exitPerimeter=0;entryX=-0.001;entryY=0.328;entryDx=0;entryDy=0;entryPerimeter=0;strokeWidth=2;fontSize=10;" edge="1" parent="1" source="175" target="5">
                    <mxGeometry relative="1" as="geometry"/>
                </mxCell>
                <mxCell id="189" value="finalBombLocation" style="edgeLabel;html=1;align=center;verticalAlign=middle;resizable=0;points=[];fontSize=8;" vertex="1" connectable="0" parent="188">
                    <mxGeometry x="-0.5864" relative="1" as="geometry">
                        <mxPoint x="21" y="7" as="offset"/>
                    </mxGeometry>
                </mxCell>
                <mxCell id="175" value="" style="externalPins=0;recursiveResize=0;shadow=0;dashed=0;align=center;html=1;strokeWidth=1;shape=mxgraph.rtl.abstract.entity;container=1;collapsible=0;kind=sequential;drawPins=0;left=3;right=2;bottom=0;top=0;" vertex="1" parent="1">
                    <mxGeometry x="830" y="409" width="70" height="110" as="geometry"/>
                </mxCell>
                <mxCell id="179" style="edgeStyle=none;html=1;exitX=0;exitY=0;exitDx=80;exitDy=40;exitPerimeter=0;entryX=0;entryY=0.364;entryDx=0;entryDy=0;entryPerimeter=0;strokeWidth=2;" edge="1" parent="1">
                    <mxGeometry relative="1" as="geometry">
                        <mxPoint x="755" y="472" as="sourcePoint"/>
                        <mxPoint x="830" y="472" as="targetPoint"/>
                    </mxGeometry>
                </mxCell>
                <mxCell id="182" value="bomb2Temp" style="edgeLabel;html=1;align=center;verticalAlign=middle;resizable=0;points=[];fontSize=8;" vertex="1" connectable="0" parent="179">
                    <mxGeometry x="0.2444" y="1" relative="1" as="geometry">
                        <mxPoint x="-8" y="-7" as="offset"/>
                    </mxGeometry>
                </mxCell>
                <mxCell id="180" style="edgeStyle=none;html=1;exitX=0;exitY=0;exitDx=80;exitDy=40;exitPerimeter=0;entryX=0;entryY=0.364;entryDx=0;entryDy=0;entryPerimeter=0;strokeWidth=2;" edge="1" parent="1">
                    <mxGeometry relative="1" as="geometry">
                        <mxPoint x="755" y="493.33" as="sourcePoint"/>
                        <mxPoint x="830" y="493.36999999999995" as="targetPoint"/>
                    </mxGeometry>
                </mxCell>
                <mxCell id="183" value="bomb3Temp" style="edgeLabel;html=1;align=center;verticalAlign=middle;resizable=0;points=[];fontSize=8;" vertex="1" connectable="0" parent="180">
                    <mxGeometry x="0.4133" relative="1" as="geometry">
                        <mxPoint x="-14" y="-9" as="offset"/>
                    </mxGeometry>
                </mxCell>
                <mxCell id="184" value="5" style="verticalLabelPosition=top;shadow=0;dashed=0;align=center;html=1;verticalAlign=bottom;shape=mxgraph.electrical.transmission.bus_width;pointerEvents=1;fontSize=8;strokeWidth=2;labelPosition=center;" vertex="1" parent="1">
                    <mxGeometry x="760" y="444" width="10" height="10" as="geometry"/>
                </mxCell>
                <mxCell id="185" value="5" style="verticalLabelPosition=top;shadow=0;dashed=0;align=center;html=1;verticalAlign=bottom;shape=mxgraph.electrical.transmission.bus_width;pointerEvents=1;fontSize=8;strokeWidth=2;labelPosition=center;" vertex="1" parent="1">
                    <mxGeometry x="760" y="467" width="10" height="10" as="geometry"/>
                </mxCell>
                <mxCell id="186" value="5" style="verticalLabelPosition=top;shadow=0;dashed=0;align=center;html=1;verticalAlign=bottom;shape=mxgraph.electrical.transmission.bus_width;pointerEvents=1;fontSize=8;strokeWidth=2;labelPosition=center;" vertex="1" parent="1">
                    <mxGeometry x="759" y="488" width="10" height="10" as="geometry"/>
                </mxCell>
                <mxCell id="187" value="&lt;font style=&quot;font-size: 10px;&quot;&gt;COLLISION_CHAIN&lt;/font&gt;" style="text;html=1;align=center;verticalAlign=middle;resizable=0;points=[];autosize=1;strokeColor=none;fillColor=none;fontSize=8;" vertex="1" parent="1">
                    <mxGeometry x="817" y="387" width="110" height="30" as="geometry"/>
                </mxCell>
                <mxCell id="190" value="16" style="verticalLabelPosition=top;shadow=0;dashed=0;align=center;html=1;verticalAlign=bottom;shape=mxgraph.electrical.transmission.bus_width;pointerEvents=1;strokeWidth=2;fontSize=8;labelPosition=center;" vertex="1" parent="1">
                    <mxGeometry x="935" y="444" width="10" height="10" as="geometry"/>
                </mxCell>
            </root>
        </mxGraphModel>
    </diagram>
</mxfile>